{
  "accessors": [
    {
      "bufferView": 2,
      "componentType": 5126,
      "count": 9167,
      "max": [
        12.10940933227539,
        37.56315231323242,
        27.819543838500977
      ],
      "min": [
        -11.81004524230957,
        -1.1010944843292236,
        -44.598533630371094
      ],
      "type": "VEC3"
    },
    {
      "bufferView": 2,
      "byteOffset": 110004,
      "componentType": 5126,
      "count": 9167,
      "max": [
        0.9999637007713318,
        0.9990665912628174,
        0.9999600648880005
      ],
      "min": [
        -0.9998180270195007,
        -0.9999983310699463,
        -0.9984109997749329
      ],
      "type": "VEC3"
    },
    {
      "bufferView": 1,
      "componentType": 5126,
      "count": 9167,
      "max": [
        0.9134891033172607,
        0.9994040727615356
      ],
      "min": [
        0.0005959445843473077,
        0.0005959151894785464
      ],
      "type": "VEC2"
    },
    {
      "bufferView": 2,
      "byteOffset": 220008,
      "componentType": 5126,
      "count": 9167,
      "max": [
        9.92330551147461,
        14.838626861572266,
        31.561838150024414
      ],
      "min": [
        -8.98283576965332,
        -6.624258041381836,
        -4.8654022216796875
      ],
      "type": "VEC3"
    },
    {
      "bufferView": 2,
      "byteOffset": 330012,
      "componentType": 5126,
      "count": 9167,
      "max": [
        1.9250402450561523,
        1.9920873641967773,
        1.8901045322418213
      ],
      "min": [
        -1.931862235069275,
        -1.9245057106018066,
        -1.787126064300537
      ],
      "type": "VEC3"
    },
    {
      "bufferView": 0,
      "componentType": 5125,
      "count": 47322,
      "type": "SCALAR"
    },
    {
      "bufferView": 3,
      "componentType": 5126,
      "count": 155,
      "max": [
        5.916666507720947
      ],
      "min": [
        1.0833333730697632
      ],
      "type": "SCALAR"
    },
    {
      "bufferView": 4,
      "componentType": 5126,
      "count": 155,
      "max": [
        0.0,
        5.394420623779297,
        0.0
      ],
      "min": [
        0.0,
        -4.302692890167236,
        0.0
      ],
      "type": "VEC3"
    },
    {
      "bufferView": 3,
      "byteOffset": 620,
      "componentType": 5126,
      "count": 155,
      "max": [
        5.916666507720947
      ],
      "min": [
        1.0833333730697632
      ],
      "type": "SCALAR"
    },
    {
      "bufferView": 5,
      "componentType": 5126,
      "count": 155,
      "max": [
        8.345384833633604e-17,
        0.9999837875366211,
        8.345384833633604e-17,
        1.0
      ],
      "min": [
        -8.656422611054773e-17,
        -0.8656992316246033,
        -8.656422611054773e-17,
        -0.4927127957344055
      ],
      "type": "VEC4"
    },
    {
      "bufferView": 3,
      "byteOffset": 1240,
      "componentType": 5126,
      "count": 7,
      "max": [
        5.9666666984558105
      ],
      "min": [
        0.0
      ],
      "type": "SCALAR"
    },
    {
      "bufferView": 3,
      "byteOffset": 1268,
      "componentType": 5126,
      "count": 7,
      "max": [
        1.0
      ],
      "min": [
        0.0
      ],
      "type": "SCALAR"
    }
  ],
  "animations": [
    {
      "channels": [
        {
          "sampler": 0,
          "target": {
            "node": 4,
            "path": "translation"
          }
        },
        {
          "sampler": 1,
          "target": {
            "node": 4,
            "path": "rotation"
          }
        },
        {
          "sampler": 2,
          "target": {
            "node": 5,
            "path": "weights"
          }
        }
      ],
      "name": "Take 001",
      "samplers": [
        {
          "input": 6,
          "interpolation": "LINEAR",
          "output": 7
        },
        {
          "input": 8,
          "interpolation": "LINEAR",
          "output": 9
        },
        {
          "input": 10,
          "interpolation": "LINEAR",
          "output": 11
        }
      ]
    }
  ],
  "asset": {
    "extras": {
      "author": "Zhuier (https://sketchfab.com/Zhuier)",
      "license": "CC-BY-4.0 (http://creativecommons.org/licenses/by/4.0/)",
      "source": "https://sketchfab.com/3d-models/oiiaioooooiai-cat-30d27bf7fb224849b76e208a6eccdb36",
      "title": "Oiiaioooooiai Cat"
    },
    "generator": "Sketchfab-16.52.0",
    "version": "2.0"
  },
  "bufferViews": [
    {
      "buffer": 0,
      "byteLength": 189288,
      "name": "floatBufferViews",
      "target": 34963
    },
    {
      "buffer": 0,
      "byteLength": 73336,
      "byteOffset": 189288,
      "byteStride": 8,
      "name": "floatBufferViews",
      "target": 34962
    },
    {
      "buffer": 0,
      "byteLength": 440016,
      "byteOffset": 262624,
      "byteStride": 12,
      "name": "floatBufferViews",
      "target": 34962
    },
    {
      "buffer": 0,
      "byteLength": 1296,
      "byteOffset": 702640,
      "name": "floatBufferViews"
    },
    {
      "buffer": 0,
      "byteLength": 1860,
      "byteOffset": 703936,
      "byteStride": 12,
      "name": "floatBufferViews"
    },
    {
      "buffer": 0,
      "byteLength": 2480,
      "byteOffset": 705796,
      "byteStride": 16,
      "name": "floatBufferViews"
    }
  ],
  "buffers": [
    {
      "byteLength": 708276,
      "uri": "scene.bin"
    }
  ],
  "images": [
    {
      "uri": "textures/Muchkin2_baseColor.png"
    }
  ],
  "materials": [
    {
      "doubleSided": true,
      "name": "Muchkin2",
      "pbrMetallicRoughness": {
        "baseColorTexture": {
          "index": 0
        },
        "metallicFactor": 0.0
      }
    }
  ],
  "meshes": [
    {
      "name": "0",
      "primitives": [
        {
          "attributes": {
            "NORMAL": 1,
            "POSITION": 0,
            "TEXCOORD_0": 2
          },
          "indices": 5,
          "material": 0,
          "mode": 4,
          "targets": [
            {
              "NORMAL": 4,
              "POSITION": 3
            }
          ]
        }
      ],
      "weights": [
        0.0
      ]
    }
  ],
  "nodes": [
    {
      "children": [
        1
      ],
      "matrix": [
        1.0,
        0.0,
        0.0,
        0.0,
        0.0,
        2.220446049250313e-16,
        -1.0,
        0.0,
        0.0,
        1.0,
        2.220446049250313e-16,
        0.0,
        0.0,
        0.0,
        0.0,
        1.0
      ],
      "name": "Sketchfab_model"
    },
    {
      "children": [
        2
      ],
      "matrix": [
        0.009999999776482582,
        0.0,
        0.0,
        0.0,
        0.0,
        0.0,
        0.009999999776482582,
        0.0,
        0.0,
        -0.009999999776482582,
        0.0,
        0.0,
        0.0,
        0.0,
        0.0,
        1.0
      ],
      "name": "191d233c94184f188ac4fad4b07dc182.fbx"
    },
    {
      "children": [
        3
      ],
      "name": "Object_2"
    },
    {
      "children": [
        4
      ],
      "name": "RootNode"
    },
    {
      "children": [
        5
      ],
      "name": "Muchkin1.002"
    },
    {
      "mesh": 0,
      "name": "0"
    }
  ],
  "samplers": [
    {
      "magFilter": 9729,
      "minFilter": 9987,
      "wrapS": 10497,
      "wrapT": 10497
    }
  ],
  "scene": 0,
  "scenes": [
    {
      "name": "Sketchfab_Scene",
      "nodes": [
        0
      ]
    }
  ],
  "textures": [
    {
      "sampler": 0,
      "source": 0
    }
  ]
}
